<svg fill="#df4568" height="200" width="200" xmlns="http://www.w3.org/2000/svg" viewBox="0 0 32 32" xmlSpace="preserve"
    stroke="#df4568" stroke-width="0">
    <g />
    <g stroke-linecap="round" stroke-linejoin="round" stroke="#904141" stroke-width=".768" />
    <path
        d="M26.5 13c-3 0-5.5-2.5-5.5-5.5S23.5 2 26.5 2 32 4.5 32 7.5 29.5 13 26.5 13M19 7.5c0-1.3.3-2.5.9-3.5H7C4.7 4 2.8 5.5 2.2 7.6L16 16.8l5.5-3.7C20 11.7 19 9.7 19 7.5"
        stroke="none" />
    <path
        d="M26.5 15c-1.1 0-2.2-.3-3.1-.7l-6.8 4.5c-.2.1-.4.2-.6.2s-.4-.1-.6-.2L2 9.9V23c0 2.8 2.2 5 5 5h18c2.8 0 5-2.2 5-5v-8.9c-1 .6-2.2.9-3.5.9"
        stroke="none" />
</svg>