<svg xmlns="http://www.w3.org/2000/svg" width="20" height="20" viewBox="0 0 31.969 31.97" xmlSpace="preserve">
    <path fill="#df4568"
        d="M.875 21.789v7.955c0 1.229.997 2.226 2.226 2.226h25.766a2.227 2.227 0 0 0 2.227-2.226v-7.971c-.158.01-.193.016-.256.016zm4.421 8.354a1.314 1.314 0 1 1-.001-2.629 1.314 1.314 0 0 1 .001 2.629m21.466-.241H9.907c-.591 0-1.072-.441-1.072-1.033s.48-1.034 1.072-1.034h16.855c.592 0 1.072.44 1.072 1.034 0 .591-.478 1.033-1.072 1.033m2.106-13.519V6.825c0-.655-.26-1.283-.725-1.746L23.763.718A2.46 2.46 0 0 0 22.026 0H4.564c-.808 0-1.462.655-1.462 1.463v14.919a2.226 2.226 0 0 0-2.226 2.226v1.114h29.963c.062 0 .098.006.256.017v-1.131a2.23 2.23 0 0 0-2.227-2.225m-5.567-13.1 2.443 2.444h-2.443zM5.169 2.068h16.063v4.56c0 .731.594 1.325 1.325 1.325h4.083v8.112H5.169z" />
    <path
        d="M23.333 11.135H8.319c-.592 0-1.072.442-1.072 1.034 0 .591.48 1.034 1.072 1.034h15.013c.592 0 1.072-.442 1.072-1.034-.001-.593-.481-1.034-1.071-1.034M8.319 7.953h8.58c.592 0 1.071-.521 1.071-1.114 0-.592-.479-1.112-1.071-1.112h-8.58c-.592 0-1.072.521-1.072 1.112.001.593.481 1.114 1.072 1.114" />
</svg>